<?xml version="1.0" encoding="UTF-8" standalone="no"?>
<!DOCTYPE svg PUBLIC "-//W3C//DTD SVG 1.1//EN" "http://www.w3.org/Graphics/SVG/1.1/DTD/svg11.dtd">
<svg width="100%" height="100%" viewBox="0 0 120 120" version="1.1" xmlns="http://www.w3.org/2000/svg" xmlns:xlink="http://www.w3.org/1999/xlink" xml:space="preserve" style="fill-rule:evenodd;clip-rule:evenodd;stroke-linejoin:round;stroke-miterlimit:1.41421;">
    <g transform="matrix(2.18818,0,0,2.19601,-74.8783,-68.1558)">
        <path d="M58.227,37.502C58.954,36.314 60.247,35.59 61.64,35.59C63.032,35.59 64.325,36.314 65.052,37.502C70.742,46.804 82.124,65.41 88.015,75.04C88.77,76.274 88.799,77.82 88.092,79.083C87.384,80.345 86.05,81.127 84.603,81.127C73.02,81.127 50.259,81.127 38.677,81.127C37.229,81.127 35.895,80.345 35.187,79.083C34.48,77.82 34.509,76.274 35.264,75.04C41.155,65.41 52.537,46.804 58.227,37.502ZM61.64,71.411C63.682,71.411 65.34,73.069 65.34,75.111C65.34,77.154 63.682,78.811 61.64,78.811C59.597,78.811 57.94,77.154 57.94,75.111C57.94,73.069 59.597,71.411 61.64,71.411ZM61.646,46.099L61.633,46.099C59.59,46.099 57.931,47.758 57.931,49.801L57.931,64.504C57.931,66.547 59.59,68.206 61.633,68.206L61.646,68.206C63.689,68.206 65.348,66.547 65.348,64.504L65.348,49.801C65.348,47.758 63.689,46.099 61.646,46.099Z" style="fill:rgb(235,235,235);"/>
    </g>
</svg>
