<?xml version="1.0" encoding="UTF-8" standalone="no"?>
<!DOCTYPE svg PUBLIC "-//W3C//DTD SVG 1.1//EN" "http://www.w3.org/Graphics/SVG/1.1/DTD/svg11.dtd">
<svg width="100%" height="100%" viewBox="0 0 60 60" version="1.1" xmlns="http://www.w3.org/2000/svg" xmlns:xlink="http://www.w3.org/1999/xlink" xml:space="preserve" xmlns:serif="http://www.serif.com/" style="fill-rule:evenodd;clip-rule:evenodd;stroke-linejoin:round;stroke-miterlimit:1.41421;">
    <path d="M30,6C43.246,6 54,16.754 54,30C54,43.246 43.246,54 30,54C16.754,54 6,43.246 6,30C6,16.754 16.754,6 30,6ZM44.027,20.398L20.398,44.027C23.131,45.902 26.438,47 30,47C39.383,47 47,39.383 47,30C47,26.438 45.902,23.131 44.027,20.398ZM39.805,16.115C37.034,14.153 33.651,13 30,13C20.617,13 13,20.617 13,30C13,33.651 14.153,37.034 16.115,39.805L39.805,16.115Z" style="fill:rgb(255,0,0);"/>
</svg>
