<?xml version="1.0" encoding="UTF-8" standalone="no"?>
<!DOCTYPE svg PUBLIC "-//W3C//DTD SVG 1.1//EN" "http://www.w3.org/Graphics/SVG/1.1/DTD/svg11.dtd">
<svg width="100%" height="100%" viewBox="0 0 24 24" version="1.1" xmlns="http://www.w3.org/2000/svg" xmlns:xlink="http://www.w3.org/1999/xlink" xml:space="preserve" style="fill-rule:evenodd;clip-rule:evenodd;stroke-linejoin:round;stroke-miterlimit:1.41421;">
    <g transform="matrix(0.829271,-1.66987e-17,-2.08734e-17,0.731595,-0.818271,-0.972557)">
        <ellipse cx="15.457" cy="17.732" rx="9.647" ry="10.935" style="fill:white;"/>
        <path d="M15.582,6.798L15.706,6.8L15.83,6.805L15.953,6.811L16.076,6.819L16.199,6.829L16.321,6.84L16.443,6.853L16.564,6.868L16.685,6.885L16.806,6.903L16.926,6.923L17.045,6.945L17.164,6.968L17.282,6.993L17.4,7.019L17.518,7.047L17.635,7.077L17.751,7.108L17.867,7.141L17.982,7.176L18.097,7.212L18.211,7.25L18.325,7.289L18.438,7.33L18.55,7.372L18.662,7.416L18.773,7.461L18.883,7.508L18.993,7.556L19.102,7.606L19.211,7.657L19.319,7.709L19.426,7.763L19.532,7.819L19.638,7.876L19.743,7.934L19.848,7.994L19.951,8.055L20.054,8.117L20.156,8.181L20.258,8.247L20.358,8.313L20.458,8.381L20.557,8.45L20.655,8.521L20.753,8.592L20.849,8.665L20.945,8.74L21.04,8.815L21.134,8.892L21.228,8.97L21.32,9.05L21.412,9.13L21.502,9.212L21.592,9.295L21.681,9.379L21.769,9.465L21.856,9.551L21.942,9.639L22.028,9.728L22.112,9.818L22.195,9.909L22.277,10.001L22.359,10.095L22.439,10.189L22.519,10.284L22.597,10.381L22.674,10.479L22.751,10.577L22.826,10.677L22.9,10.778L22.973,10.88L23.046,10.982L23.117,11.086L23.187,11.191L23.256,11.297L23.323,11.404L23.39,11.511L23.456,11.62L23.52,11.729L23.584,11.84L23.646,11.951L23.707,12.063L23.767,12.177L23.825,12.291L23.883,12.406L23.939,12.521L23.994,12.638L24.048,12.755L24.101,12.874L24.152,12.993L24.203,13.113L24.252,13.233L24.299,13.355L24.346,13.477L24.391,13.6L24.435,13.724L24.477,13.848L24.519,13.974L24.558,14.1L24.597,14.226L24.634,14.354L24.67,14.482L24.705,14.61L24.738,14.74L24.77,14.87L24.8,15L24.829,15.132L24.857,15.264L24.883,15.396L24.908,15.529L24.932,15.663L24.954,15.797L24.974,15.932L24.993,16.068L25.011,16.203L25.027,16.34L25.041,16.477L25.054,16.615L25.066,16.753L25.076,16.891L25.085,17.03L25.092,17.17L25.097,17.309L25.101,17.45L25.104,17.591L25.104,17.732L25.104,17.873L25.101,18.014L25.097,18.154L25.092,18.294L25.085,18.434L25.076,18.573L25.066,18.711L25.054,18.849L25.041,18.987L25.027,19.124L25.011,19.26L24.993,19.396L24.974,19.532L24.954,19.667L24.932,19.801L24.908,19.935L24.883,20.068L24.857,20.2L24.829,20.332L24.8,20.463L24.77,20.594L24.738,20.724L24.705,20.853L24.67,20.982L24.634,21.11L24.597,21.238L24.558,21.364L24.519,21.49L24.477,21.615L24.435,21.74L24.391,21.864L24.346,21.987L24.299,22.109L24.252,22.23L24.203,22.351L24.152,22.471L24.101,22.59L24.048,22.708L23.994,22.826L23.939,22.942L23.883,23.058L23.825,23.173L23.767,23.287L23.707,23.4L23.646,23.513L23.584,23.624L23.52,23.734L23.456,23.844L23.39,23.953L23.323,24.06L23.256,24.167L23.187,24.273L23.117,24.378L23.046,24.481L22.973,24.584L22.9,24.686L22.826,24.787L22.751,24.886L22.674,24.985L22.597,25.083L22.519,25.179L22.439,25.275L22.359,25.369L22.277,25.463L22.195,25.555L22.112,25.646L22.028,25.736L21.942,25.825L21.856,25.912L21.769,25.999L21.681,26.084L21.592,26.169L21.502,26.252L21.412,26.333L21.32,26.414L21.228,26.493L21.134,26.571L21.04,26.648L20.945,26.724L20.849,26.798L20.753,26.871L20.655,26.943L20.557,27.014L20.458,27.083L20.358,27.151L20.258,27.217L20.156,27.282L20.054,27.346L19.951,27.409L19.848,27.47L19.743,27.53L19.638,27.588L19.532,27.645L19.426,27.7L19.319,27.754L19.211,27.807L19.102,27.858L18.993,27.908L18.883,27.956L18.773,28.003L18.662,28.048L18.55,28.092L18.438,28.134L18.325,28.175L18.211,28.214L18.097,28.252L17.982,28.288L17.867,28.322L17.751,28.355L17.635,28.387L17.518,28.416L17.4,28.445L17.282,28.471L17.164,28.496L17.045,28.519L16.926,28.541L16.806,28.561L16.685,28.579L16.564,28.596L16.443,28.61L16.321,28.624L16.199,28.635L16.076,28.645L15.953,28.653L15.83,28.659L15.706,28.663L15.582,28.666L15.457,28.667L15.333,28.666L15.208,28.663L15.085,28.659L14.961,28.653L14.838,28.645L14.715,28.635L14.593,28.624L14.472,28.61L14.35,28.596L14.229,28.579L14.109,28.561L13.989,28.541L13.869,28.519L13.751,28.496L13.632,28.471L13.514,28.445L13.397,28.416L13.28,28.387L13.163,28.355L13.048,28.322L12.932,28.288L12.818,28.252L12.703,28.214L12.59,28.175L12.477,28.134L12.365,28.092L12.253,28.048L12.142,28.003L12.031,27.956L11.921,27.908L11.812,27.858L11.704,27.807L11.596,27.754L11.489,27.7L11.382,27.645L11.276,27.588L11.171,27.53L11.067,27.47L10.963,27.409L10.861,27.346L10.758,27.282L10.657,27.217L10.556,27.151L10.457,27.083L10.357,27.014L10.259,26.943L10.162,26.871L10.065,26.798L9.969,26.724L9.874,26.648L9.78,26.571L9.687,26.493L9.594,26.414L9.503,26.333L9.412,26.252L9.322,26.169L9.233,26.084L9.145,25.999L9.058,25.912L8.972,25.825L8.887,25.736L8.803,25.646L8.719,25.555L8.637,25.463L8.556,25.369L8.475,25.275L8.396,25.179L8.318,25.083L8.24,24.985L8.164,24.886L8.089,24.787L8.014,24.686L7.941,24.584L7.869,24.481L7.798,24.378L7.728,24.273L7.659,24.167L7.591,24.06L7.524,23.953L7.459,23.844L7.394,23.734L7.331,23.624L7.269,23.513L7.208,23.4L7.148,23.287L7.089,23.173L7.032,23.058L6.975,22.942L6.92,22.826L6.866,22.708L6.814,22.59L6.762,22.471L6.712,22.351L6.663,22.23L6.615,22.109L6.569,21.987L6.524,21.864L6.48,21.74L6.437,21.615L6.396,21.49L6.356,21.364L6.317,21.238L6.28,21.11L6.244,20.982L6.21,20.853L6.176,20.724L6.145,20.594L6.114,20.463L6.085,20.332L6.057,20.2L6.031,20.068L6.006,19.935L5.983,19.801L5.961,19.667L5.941,19.532L5.921,19.396L5.904,19.26L5.888,19.124L5.873,18.987L5.86,18.849L5.848,18.711L5.838,18.573L5.83,18.434L5.823,18.294L5.817,18.154L5.813,18.014L5.811,17.873L5.81,17.732L5.811,17.591L5.813,17.45L5.817,17.309L5.823,17.17L5.83,17.03L5.838,16.891L5.848,16.753L5.86,16.615L5.873,16.477L5.888,16.34L5.904,16.203L5.921,16.068L5.941,15.932L5.961,15.797L5.983,15.663L6.006,15.529L6.031,15.396L6.057,15.264L6.085,15.132L6.114,15L6.145,14.87L6.176,14.74L6.21,14.61L6.244,14.482L6.28,14.354L6.317,14.226L6.356,14.1L6.396,13.974L6.437,13.848L6.48,13.724L6.524,13.6L6.569,13.477L6.615,13.355L6.663,13.233L6.712,13.113L6.762,12.993L6.814,12.874L6.866,12.755L6.92,12.638L6.975,12.521L7.032,12.406L7.089,12.291L7.148,12.177L7.208,12.063L7.269,11.951L7.331,11.84L7.394,11.729L7.459,11.62L7.524,11.511L7.591,11.404L7.659,11.297L7.728,11.191L7.798,11.086L7.869,10.982L7.941,10.88L8.014,10.778L8.089,10.677L8.164,10.577L8.24,10.479L8.318,10.381L8.396,10.284L8.475,10.189L8.556,10.095L8.637,10.001L8.719,9.909L8.803,9.818L8.887,9.728L8.972,9.639L9.058,9.551L9.145,9.465L9.233,9.379L9.322,9.295L9.412,9.212L9.503,9.13L9.594,9.05L9.687,8.97L9.78,8.892L9.874,8.815L9.969,8.74L10.065,8.665L10.162,8.592L10.259,8.521L10.357,8.45L10.457,8.381L10.556,8.313L10.657,8.247L10.758,8.181L10.861,8.117L10.963,8.055L11.067,7.994L11.171,7.934L11.276,7.876L11.382,7.819L11.489,7.763L11.596,7.709L11.704,7.657L11.812,7.606L11.921,7.556L12.031,7.508L12.142,7.461L12.253,7.416L12.365,7.372L12.477,7.33L12.59,7.289L12.703,7.25L12.818,7.212L12.932,7.176L13.048,7.141L13.163,7.108L13.28,7.077L13.397,7.047L13.514,7.019L13.632,6.993L13.751,6.968L13.869,6.945L13.989,6.923L14.109,6.903L14.229,6.885L14.35,6.868L14.472,6.853L14.593,6.84L14.715,6.829L14.838,6.819L14.961,6.811L15.085,6.805L15.208,6.8L15.333,6.798L15.457,6.797L15.582,6.798ZM15.348,8.165L15.239,8.167L15.13,8.171L15.022,8.176L14.914,8.183L14.807,8.192L14.7,8.202L14.593,8.213L14.487,8.226L14.382,8.241L14.276,8.257L14.171,8.274L14.067,8.293L13.963,8.313L13.859,8.335L13.756,8.358L13.653,8.383L13.551,8.409L13.45,8.436L13.348,8.465L13.248,8.495L13.147,8.527L13.048,8.56L12.948,8.594L12.85,8.63L12.751,8.666L12.654,8.705L12.557,8.744L12.46,8.785L12.364,8.827L12.269,8.871L12.174,8.916L12.079,8.962L11.986,9.009L11.893,9.057L11.8,9.107L11.708,9.158L11.617,9.21L11.526,9.264L11.436,9.318L11.347,9.374L11.258,9.431L11.17,9.49L11.083,9.549L10.996,9.609L10.91,9.671L10.825,9.734L10.74,9.798L10.656,9.863L10.573,9.929L10.491,9.997L10.409,10.065L10.328,10.134L10.248,10.205L10.169,10.277L10.09,10.349L10.012,10.423L9.935,10.498L9.859,10.574L9.783,10.65L9.709,10.728L9.635,10.807L9.562,10.887L9.49,10.968L9.419,11.049L9.348,11.132L9.279,11.216L9.21,11.3L9.142,11.386L9.075,11.472L9.009,11.56L8.944,11.648L8.88,11.737L8.817,11.827L8.755,11.918L8.693,12.01L8.633,12.102L8.574,12.196L8.515,12.29L8.458,12.385L8.401,12.481L8.346,12.578L8.292,12.675L8.238,12.774L8.186,12.873L8.134,12.972L8.084,13.073L8.035,13.174L7.987,13.276L7.939,13.379L7.893,13.482L7.848,13.587L7.804,13.691L7.762,13.797L7.72,13.903L7.679,14.01L7.64,14.118L7.602,14.226L7.564,14.335L7.528,14.444L7.493,14.554L7.46,14.665L7.427,14.776L7.396,14.888L7.365,15L7.336,15.113L7.309,15.227L7.282,15.341L7.257,15.456L7.232,15.571L7.209,15.687L7.188,15.804L7.167,15.92L7.148,16.038L7.13,16.156L7.114,16.274L7.098,16.393L7.084,16.513L7.071,16.632L7.06,16.753L7.05,16.874L7.041,16.995L7.033,17.117L7.027,17.239L7.022,17.361L7.019,17.485L7.017,17.608L7.016,17.732L7.017,17.856L7.019,17.979L7.022,18.102L7.027,18.225L7.033,18.347L7.041,18.469L7.05,18.59L7.06,18.711L7.071,18.831L7.084,18.951L7.098,19.071L7.114,19.19L7.13,19.308L7.148,19.426L7.167,19.543L7.188,19.66L7.209,19.777L7.232,19.892L7.257,20.008L7.282,20.122L7.309,20.237L7.336,20.35L7.365,20.463L7.396,20.576L7.427,20.688L7.46,20.799L7.493,20.91L7.528,21.02L7.564,21.129L7.602,21.238L7.64,21.346L7.679,21.454L7.72,21.561L7.762,21.667L7.804,21.772L7.848,21.877L7.893,21.981L7.939,22.085L7.987,22.188L8.035,22.29L8.084,22.391L8.134,22.491L8.186,22.591L8.238,22.69L8.292,22.789L8.346,22.886L8.401,22.983L8.458,23.079L8.515,23.174L8.574,23.268L8.633,23.361L8.693,23.454L8.755,23.546L8.817,23.637L8.88,23.727L8.944,23.816L9.009,23.904L9.075,23.991L9.142,24.078L9.21,24.163L9.279,24.248L9.348,24.332L9.419,24.414L9.49,24.496L9.562,24.577L9.635,24.657L9.709,24.735L9.783,24.813L9.859,24.89L9.935,24.966L10.012,25.041L10.09,25.114L10.169,25.187L10.248,25.259L10.328,25.329L10.409,25.399L10.491,25.467L10.573,25.534L10.656,25.601L10.74,25.666L10.825,25.73L10.91,25.793L10.996,25.854L11.083,25.915L11.17,25.974L11.258,26.032L11.347,26.089L11.436,26.145L11.526,26.2L11.617,26.253L11.708,26.306L11.8,26.357L11.893,26.406L11.986,26.455L12.079,26.502L12.174,26.548L12.269,26.593L12.364,26.636L12.46,26.679L12.557,26.719L12.654,26.759L12.751,26.797L12.85,26.834L12.948,26.87L13.048,26.904L13.147,26.937L13.248,26.969L13.348,26.999L13.45,27.027L13.551,27.055L13.653,27.081L13.756,27.105L13.859,27.129L13.963,27.15L14.067,27.171L14.171,27.19L14.276,27.207L14.382,27.223L14.487,27.238L14.593,27.251L14.7,27.262L14.807,27.272L14.914,27.281L15.022,27.288L15.13,27.293L15.239,27.297L15.348,27.299L15.457,27.3L15.567,27.299L15.676,27.297L15.784,27.293L15.892,27.288L16,27.281L16.107,27.272L16.214,27.262L16.321,27.251L16.427,27.238L16.533,27.223L16.638,27.207L16.743,27.19L16.848,27.171L16.952,27.15L17.055,27.129L17.158,27.105L17.261,27.081L17.363,27.055L17.465,27.027L17.566,26.999L17.667,26.969L17.767,26.937L17.867,26.904L17.966,26.87L18.065,26.834L18.163,26.797L18.261,26.759L18.358,26.719L18.454,26.679L18.55,26.636L18.646,26.593L18.741,26.548L18.835,26.502L18.929,26.455L19.022,26.406L19.114,26.357L19.206,26.306L19.298,26.253L19.388,26.2L19.478,26.145L19.568,26.089L19.656,26.032L19.744,25.974L19.832,25.915L19.918,25.854L20.004,25.793L20.09,25.73L20.174,25.666L20.258,25.601L20.341,25.534L20.424,25.467L20.505,25.399L20.586,25.329L20.666,25.259L20.746,25.187L20.825,25.114L20.902,25.041L20.979,24.966L21.056,24.89L21.131,24.813L21.206,24.735L21.28,24.657L21.353,24.577L21.425,24.496L21.496,24.414L21.566,24.332L21.636,24.248L21.705,24.163L21.772,24.078L21.839,23.991L21.905,23.904L21.97,23.816L22.034,23.727L22.098,23.637L22.16,23.546L22.221,23.454L22.281,23.361L22.341,23.268L22.399,23.174L22.457,23.079L22.513,22.983L22.569,22.886L22.623,22.789L22.676,22.69L22.729,22.591L22.78,22.491L22.83,22.391L22.88,22.29L22.928,22.188L22.975,22.085L23.021,21.981L23.066,21.877L23.11,21.772L23.153,21.667L23.195,21.561L23.235,21.454L23.275,21.346L23.313,21.238L23.35,21.129L23.386,21.02L23.421,20.91L23.455,20.799L23.487,20.688L23.519,20.576L23.549,20.463L23.578,20.35L23.606,20.237L23.633,20.122L23.658,20.008L23.682,19.892L23.705,19.777L23.727,19.66L23.747,19.543L23.766,19.426L23.784,19.308L23.801,19.19L23.816,19.071L23.83,18.951L23.843,18.831L23.855,18.711L23.865,18.59L23.874,18.469L23.881,18.347L23.887,18.225L23.892,18.102L23.896,17.979L23.898,17.856L23.898,17.732L23.898,17.608L23.896,17.485L23.892,17.361L23.887,17.239L23.881,17.117L23.874,16.995L23.865,16.874L23.855,16.753L23.843,16.632L23.83,16.513L23.816,16.393L23.801,16.274L23.784,16.156L23.766,16.038L23.747,15.92L23.727,15.804L23.705,15.687L23.682,15.571L23.658,15.456L23.633,15.341L23.606,15.227L23.578,15.113L23.549,15L23.519,14.888L23.487,14.776L23.455,14.665L23.421,14.554L23.386,14.444L23.35,14.335L23.313,14.226L23.275,14.118L23.235,14.01L23.195,13.903L23.153,13.797L23.11,13.691L23.066,13.587L23.021,13.482L22.975,13.379L22.928,13.276L22.88,13.174L22.83,13.073L22.78,12.972L22.729,12.873L22.676,12.774L22.623,12.675L22.569,12.578L22.513,12.481L22.457,12.385L22.399,12.29L22.341,12.196L22.281,12.102L22.221,12.01L22.16,11.918L22.098,11.827L22.034,11.737L21.97,11.648L21.905,11.56L21.839,11.472L21.772,11.386L21.705,11.3L21.636,11.216L21.566,11.132L21.496,11.049L21.425,10.968L21.353,10.887L21.28,10.807L21.206,10.728L21.131,10.651L21.056,10.574L20.979,10.498L20.902,10.423L20.825,10.349L20.746,10.277L20.666,10.205L20.586,10.135L20.505,10.065L20.424,9.997L20.341,9.929L20.258,9.863L20.174,9.798L20.09,9.734L20.004,9.671L19.918,9.609L19.832,9.549L19.744,9.49L19.656,9.431L19.568,9.374L19.478,9.318L19.388,9.264L19.298,9.21L19.206,9.158L19.114,9.107L19.022,9.057L18.929,9.009L18.835,8.962L18.741,8.916L18.646,8.871L18.55,8.827L18.454,8.785L18.358,8.744L18.261,8.705L18.163,8.666L18.065,8.63L17.966,8.594L17.867,8.56L17.767,8.527L17.667,8.495L17.566,8.465L17.465,8.436L17.363,8.409L17.261,8.383L17.158,8.358L17.055,8.335L16.952,8.313L16.848,8.293L16.743,8.274L16.638,8.257L16.533,8.241L16.427,8.226L16.321,8.213L16.214,8.202L16.107,8.192L16,8.183L15.892,8.176L15.784,8.171L15.676,8.167L15.567,8.165L15.457,8.164L15.348,8.165Z" style="fill:rgb(102,204,0);"/>
    </g>
</svg>
