<?xml version="1.0" encoding="UTF-8" standalone="no"?>
<!DOCTYPE svg PUBLIC "-//W3C//DTD SVG 1.1//EN" "http://www.w3.org/Graphics/SVG/1.1/DTD/svg11.dtd">
<svg width="100%" height="100%" viewBox="0 0 24 24" version="1.1" xmlns="http://www.w3.org/2000/svg" xmlns:xlink="http://www.w3.org/1999/xlink" xml:space="preserve" style="fill-rule:evenodd;clip-rule:evenodd;stroke-linejoin:round;stroke-miterlimit:1.41421;">
    <g transform="matrix(1.04629,0,0,1.04629,-0.730091,-2.30065)">
        <circle cx="12.167" cy="13.668" r="7.646" style="fill:white;"/>
        <path d="M12.266,6.023L12.364,6.024L12.462,6.027L12.56,6.032L12.658,6.037L12.755,6.044L12.852,6.052L12.948,6.061L13.044,6.072L13.14,6.083L13.236,6.096L13.331,6.11L13.425,6.125L13.52,6.141L13.613,6.159L13.707,6.177L13.8,6.197L13.893,6.218L13.985,6.24L14.077,6.263L14.168,6.287L14.259,6.312L14.35,6.338L14.44,6.366L14.529,6.394L14.618,6.424L14.707,6.455L14.795,6.486L14.882,6.519L14.969,6.553L15.056,6.587L15.142,6.623L15.227,6.66L15.312,6.698L15.397,6.737L15.48,6.776L15.564,6.817L15.646,6.859L15.729,6.902L15.81,6.945L15.891,6.99L15.971,7.036L16.051,7.082L16.13,7.129L16.209,7.178L16.287,7.227L16.364,7.277L16.441,7.328L16.517,7.38L16.592,7.433L16.666,7.487L16.74,7.542L16.814,7.597L16.886,7.654L16.958,7.711L17.029,7.769L17.1,7.828L17.169,7.887L17.238,7.948L17.307,8.009L17.374,8.071L17.441,8.134L17.507,8.198L17.572,8.262L17.637,8.328L17.701,8.394L17.763,8.46L17.826,8.528L17.887,8.596L17.947,8.665L18.007,8.735L18.066,8.806L18.124,8.877L18.181,8.949L18.238,9.021L18.293,9.094L18.348,9.168L18.401,9.243L18.454,9.318L18.506,9.394L18.557,9.471L18.608,9.548L18.657,9.626L18.705,9.704L18.753,9.784L18.799,9.863L18.845,9.944L18.889,10.025L18.933,10.106L18.976,10.188L19.018,10.271L19.058,10.354L19.098,10.438L19.137,10.523L19.175,10.607L19.212,10.693L19.247,10.779L19.282,10.865L19.316,10.953L19.349,11.04L19.38,11.128L19.411,11.217L19.44,11.306L19.469,11.395L19.496,11.485L19.523,11.576L19.548,11.667L19.572,11.758L19.595,11.85L19.617,11.942L19.638,12.035L19.657,12.128L19.676,12.221L19.693,12.315L19.71,12.409L19.725,12.504L19.739,12.599L19.751,12.695L19.763,12.79L19.773,12.887L19.783,12.983L19.791,13.08L19.797,13.177L19.803,13.275L19.807,13.373L19.81,13.471L19.812,13.569L19.813,13.668L19.812,13.767L19.81,13.865L19.807,13.963L19.803,14.061L19.797,14.159L19.791,14.256L19.783,14.353L19.773,14.449L19.763,14.545L19.751,14.641L19.739,14.737L19.725,14.832L19.71,14.926L19.693,15.021L19.676,15.115L19.657,15.208L19.638,15.301L19.617,15.394L19.595,15.486L19.572,15.578L19.548,15.669L19.523,15.76L19.496,15.851L19.469,15.941L19.44,16.03L19.411,16.119L19.38,16.208L19.349,16.296L19.316,16.383L19.282,16.47L19.247,16.557L19.212,16.643L19.175,16.728L19.137,16.813L19.098,16.898L19.058,16.982L19.018,17.065L18.976,17.148L18.933,17.23L18.889,17.311L18.845,17.392L18.799,17.473L18.753,17.552L18.705,17.631L18.657,17.71L18.608,17.788L18.557,17.865L18.506,17.942L18.454,18.018L18.401,18.093L18.348,18.168L18.293,18.241L18.238,18.315L18.181,18.387L18.124,18.459L18.066,18.53L18.007,18.601L17.947,18.671L17.887,18.74L17.826,18.808L17.763,18.875L17.701,18.942L17.637,19.008L17.572,19.073L17.507,19.138L17.441,19.202L17.374,19.265L17.307,19.327L17.238,19.388L17.169,19.449L17.1,19.508L17.029,19.567L16.958,19.625L16.886,19.682L16.814,19.739L16.74,19.794L16.666,19.849L16.592,19.903L16.517,19.955L16.441,20.007L16.364,20.058L16.287,20.109L16.209,20.158L16.13,20.206L16.051,20.254L15.971,20.3L15.891,20.346L15.81,20.391L15.729,20.434L15.646,20.477L15.564,20.519L15.48,20.56L15.397,20.599L15.312,20.638L15.227,20.676L15.142,20.713L15.056,20.748L14.969,20.783L14.882,20.817L14.795,20.85L14.707,20.881L14.618,20.912L14.529,20.941L14.44,20.97L14.35,20.997L14.259,21.024L14.168,21.049L14.077,21.073L13.985,21.096L13.893,21.118L13.8,21.139L13.707,21.159L13.613,21.177L13.52,21.194L13.425,21.211L13.331,21.226L13.236,21.24L13.14,21.252L13.044,21.264L12.948,21.274L12.852,21.284L12.755,21.292L12.658,21.298L12.56,21.304L12.462,21.308L12.364,21.311L12.266,21.313L12.167,21.314L12.068,21.313L11.97,21.311L11.871,21.308L11.774,21.304L11.676,21.298L11.579,21.292L11.482,21.284L11.386,21.274L11.289,21.264L11.194,21.252L11.098,21.24L11.003,21.226L10.908,21.211L10.814,21.194L10.72,21.177L10.627,21.159L10.534,21.139L10.441,21.118L10.349,21.096L10.257,21.073L10.166,21.049L10.075,21.024L9.984,20.997L9.894,20.97L9.805,20.941L9.716,20.912L9.627,20.881L9.539,20.85L9.451,20.817L9.364,20.783L9.278,20.748L9.192,20.713L9.106,20.676L9.021,20.638L8.937,20.599L8.853,20.56L8.77,20.519L8.687,20.477L8.605,20.434L8.524,20.391L8.443,20.346L8.362,20.3L8.282,20.254L8.203,20.206L8.125,20.158L8.047,20.109L7.97,20.058L7.893,20.007L7.817,19.955L7.742,19.903L7.667,19.849L7.593,19.794L7.52,19.739L7.447,19.682L7.376,19.625L7.304,19.567L7.234,19.508L7.164,19.449L7.095,19.388L7.027,19.327L6.959,19.265L6.893,19.202L6.827,19.138L6.761,19.073L6.697,19.008L6.633,18.942L6.57,18.875L6.508,18.808L6.447,18.74L6.386,18.671L6.327,18.601L6.268,18.53L6.21,18.459L6.152,18.387L6.096,18.315L6.041,18.241L5.986,18.168L5.932,18.093L5.879,18.018L5.827,17.942L5.776,17.865L5.726,17.788L5.677,17.71L5.628,17.631L5.581,17.552L5.534,17.473L5.489,17.392L5.444,17.311L5.401,17.23L5.358,17.148L5.316,17.065L5.275,16.982L5.235,16.898L5.197,16.813L5.159,16.728L5.122,16.643L5.086,16.557L5.052,16.47L5.018,16.383L4.985,16.296L4.953,16.208L4.923,16.119L4.893,16.03L4.865,15.941L4.837,15.851L4.811,15.76L4.786,15.669L4.762,15.578L4.739,15.486L4.717,15.394L4.696,15.301L4.676,15.208L4.658,15.115L4.64,15.021L4.624,14.926L4.609,14.832L4.595,14.737L4.582,14.641L4.571,14.545L4.56,14.449L4.551,14.353L4.543,14.256L4.536,14.159L4.531,14.061L4.526,13.963L4.523,13.865L4.521,13.767L4.521,13.668L4.521,13.569L4.523,13.471L4.526,13.373L4.531,13.275L4.536,13.177L4.543,13.08L4.551,12.983L4.56,12.887L4.571,12.79L4.582,12.695L4.595,12.599L4.609,12.504L4.624,12.409L4.64,12.315L4.658,12.221L4.676,12.128L4.696,12.035L4.717,11.942L4.739,11.85L4.762,11.758L4.786,11.667L4.811,11.576L4.837,11.485L4.865,11.395L4.893,11.306L4.923,11.217L4.953,11.128L4.985,11.04L5.018,10.953L5.052,10.865L5.086,10.779L5.122,10.693L5.159,10.607L5.197,10.523L5.235,10.438L5.275,10.354L5.316,10.271L5.358,10.188L5.401,10.106L5.444,10.025L5.489,9.944L5.534,9.863L5.581,9.784L5.628,9.704L5.677,9.626L5.726,9.548L5.776,9.471L5.827,9.394L5.879,9.318L5.932,9.243L5.986,9.168L6.041,9.094L6.096,9.021L6.152,8.949L6.21,8.877L6.268,8.806L6.327,8.735L6.386,8.665L6.447,8.596L6.508,8.528L6.57,8.46L6.633,8.394L6.697,8.328L6.761,8.262L6.827,8.198L6.893,8.134L6.959,8.071L7.027,8.009L7.095,7.948L7.164,7.887L7.234,7.828L7.304,7.769L7.376,7.711L7.447,7.654L7.52,7.597L7.593,7.542L7.667,7.487L7.742,7.433L7.817,7.38L7.893,7.328L7.97,7.277L8.047,7.227L8.125,7.178L8.203,7.129L8.282,7.082L8.362,7.036L8.443,6.99L8.524,6.945L8.605,6.902L8.687,6.859L8.77,6.817L8.853,6.776L8.937,6.737L9.021,6.698L9.106,6.66L9.192,6.623L9.278,6.587L9.364,6.553L9.451,6.519L9.539,6.486L9.627,6.455L9.716,6.424L9.805,6.394L9.894,6.366L9.984,6.338L10.075,6.312L10.166,6.287L10.257,6.263L10.349,6.24L10.441,6.218L10.534,6.197L10.627,6.177L10.72,6.159L10.814,6.141L10.908,6.125L11.003,6.11L11.098,6.096L11.194,6.083L11.289,6.072L11.386,6.061L11.482,6.052L11.579,6.044L11.676,6.037L11.774,6.032L11.871,6.027L11.97,6.024L12.068,6.023L12.167,6.022L12.266,6.023ZM12.08,6.978L11.994,6.98L11.908,6.983L11.822,6.986L11.737,6.991L11.652,6.997L11.567,7.004L11.482,7.012L11.398,7.021L11.314,7.031L11.231,7.043L11.148,7.055L11.065,7.068L10.982,7.082L10.9,7.097L10.819,7.114L10.737,7.131L10.656,7.149L10.576,7.168L10.495,7.188L10.415,7.209L10.336,7.231L10.257,7.255L10.178,7.278L10.1,7.303L10.022,7.329L9.945,7.356L9.868,7.384L9.791,7.412L9.715,7.442L9.64,7.472L9.564,7.503L9.49,7.535L9.415,7.569L9.342,7.602L9.268,7.637L9.195,7.673L9.123,7.709L9.051,7.747L8.98,7.785L8.909,7.824L8.839,7.864L8.769,7.905L8.7,7.946L8.631,7.989L8.563,8.032L8.495,8.076L8.428,8.12L8.362,8.166L8.296,8.212L8.231,8.259L8.166,8.307L8.102,8.356L8.038,8.405L7.975,8.455L7.913,8.506L7.851,8.557L7.79,8.61L7.73,8.663L7.67,8.716L7.611,8.771L7.552,8.826L7.494,8.882L7.437,8.938L7.381,8.995L7.325,9.053L7.27,9.112L7.215,9.171L7.162,9.231L7.109,9.291L7.056,9.352L7.005,9.414L6.954,9.476L6.904,9.539L6.855,9.603L6.806,9.667L6.758,9.732L6.711,9.797L6.665,9.863L6.619,9.929L6.575,9.996L6.531,10.064L6.487,10.132L6.445,10.201L6.404,10.27L6.363,10.34L6.323,10.41L6.284,10.481L6.246,10.552L6.208,10.624L6.172,10.697L6.136,10.769L6.101,10.843L6.067,10.916L6.034,10.991L6.002,11.065L5.971,11.141L5.941,11.216L5.911,11.292L5.883,11.369L5.855,11.446L5.828,11.523L5.802,11.601L5.777,11.679L5.753,11.758L5.73,11.837L5.708,11.917L5.687,11.996L5.667,12.077L5.648,12.157L5.63,12.238L5.613,12.32L5.596,12.401L5.581,12.483L5.567,12.566L5.554,12.649L5.542,12.732L5.53,12.815L5.52,12.899L5.511,12.983L5.503,13.068L5.496,13.153L5.49,13.238L5.485,13.323L5.482,13.409L5.479,13.495L5.477,13.581L5.477,13.668L5.477,13.755L5.479,13.841L5.482,13.927L5.485,14.013L5.49,14.098L5.496,14.183L5.503,14.268L5.511,14.353L5.52,14.437L5.53,14.521L5.542,14.604L5.554,14.687L5.567,14.77L5.581,14.852L5.596,14.935L5.613,15.016L5.63,15.098L5.648,15.179L5.667,15.259L5.687,15.339L5.708,15.419L5.73,15.499L5.753,15.578L5.777,15.656L5.802,15.735L5.828,15.813L5.855,15.89L5.883,15.967L5.911,16.043L5.941,16.12L5.971,16.195L6.002,16.27L6.034,16.345L6.067,16.419L6.101,16.493L6.136,16.566L6.172,16.639L6.208,16.712L6.246,16.783L6.284,16.855L6.323,16.926L6.363,16.996L6.404,17.066L6.445,17.135L6.487,17.204L6.531,17.272L6.575,17.339L6.619,17.406L6.665,17.473L6.711,17.539L6.758,17.604L6.806,17.669L6.855,17.733L6.904,17.797L6.954,17.86L7.005,17.922L7.056,17.984L7.109,18.045L7.162,18.105L7.215,18.165L7.27,18.224L7.325,18.283L7.381,18.34L7.437,18.398L7.494,18.454L7.552,18.51L7.611,18.565L7.67,18.619L7.73,18.673L7.79,18.726L7.851,18.778L7.913,18.83L7.975,18.881L8.038,18.931L8.102,18.98L8.166,19.029L8.231,19.077L8.296,19.124L8.362,19.17L8.428,19.216L8.495,19.26L8.563,19.304L8.631,19.347L8.7,19.39L8.769,19.431L8.839,19.472L8.909,19.512L8.98,19.551L9.051,19.589L9.123,19.626L9.195,19.663L9.268,19.699L9.342,19.733L9.415,19.767L9.49,19.8L9.564,19.833L9.64,19.864L9.715,19.894L9.791,19.924L9.868,19.952L9.945,19.98L10.022,20.007L10.1,20.033L10.178,20.057L10.257,20.081L10.336,20.104L10.415,20.126L10.495,20.148L10.576,20.168L10.656,20.187L10.737,20.205L10.819,20.222L10.9,20.238L10.982,20.254L11.065,20.268L11.148,20.281L11.231,20.293L11.314,20.304L11.398,20.314L11.482,20.324L11.567,20.332L11.652,20.339L11.737,20.345L11.822,20.349L11.908,20.353L11.994,20.356L12.08,20.358L12.167,20.358L12.253,20.358L12.34,20.356L12.426,20.353L12.512,20.349L12.597,20.345L12.682,20.339L12.767,20.332L12.851,20.324L12.936,20.314L13.019,20.304L13.103,20.293L13.186,20.281L13.269,20.268L13.351,20.254L13.433,20.238L13.515,20.222L13.597,20.205L13.678,20.187L13.758,20.168L13.838,20.148L13.918,20.126L13.998,20.104L14.077,20.081L14.155,20.057L14.234,20.033L14.311,20.007L14.389,19.98L14.466,19.952L14.542,19.924L14.618,19.894L14.694,19.864L14.769,19.833L14.844,19.8L14.918,19.767L14.992,19.733L15.065,19.699L15.138,19.663L15.211,19.626L15.282,19.589L15.354,19.551L15.425,19.512L15.495,19.472L15.565,19.431L15.634,19.39L15.703,19.347L15.771,19.304L15.838,19.26L15.905,19.216L15.972,19.17L16.038,19.124L16.103,19.077L16.168,19.029L16.232,18.98L16.296,18.931L16.359,18.881L16.421,18.83L16.483,18.778L16.544,18.726L16.604,18.673L16.664,18.619L16.723,18.565L16.782,18.51L16.839,18.454L16.897,18.398L16.953,18.34L17.009,18.283L17.064,18.224L17.118,18.165L17.172,18.105L17.225,18.045L17.277,17.984L17.329,17.922L17.38,17.86L17.43,17.797L17.479,17.733L17.528,17.669L17.576,17.604L17.623,17.539L17.669,17.473L17.714,17.406L17.759,17.339L17.803,17.272L17.846,17.204L17.889,17.135L17.93,17.066L17.971,16.996L18.011,16.926L18.05,16.855L18.088,16.783L18.125,16.712L18.162,16.639L18.197,16.566L18.232,16.493L18.266,16.419L18.299,16.345L18.331,16.27L18.363,16.195L18.393,16.12L18.423,16.043L18.451,15.967L18.479,15.89L18.506,15.813L18.531,15.735L18.556,15.656L18.58,15.578L18.603,15.499L18.625,15.419L18.646,15.339L18.667,15.259L18.686,15.179L18.704,15.098L18.721,15.016L18.737,14.935L18.753,14.852L18.767,14.77L18.78,14.687L18.792,14.604L18.803,14.521L18.813,14.437L18.823,14.353L18.831,14.268L18.838,14.183L18.844,14.098L18.848,14.013L18.852,13.927L18.855,13.841L18.857,13.755L18.857,13.668L18.857,13.581L18.855,13.495L18.852,13.409L18.848,13.323L18.844,13.238L18.838,13.153L18.831,13.068L18.823,12.983L18.813,12.899L18.803,12.815L18.792,12.732L18.78,12.649L18.767,12.566L18.753,12.483L18.737,12.401L18.721,12.32L18.704,12.238L18.686,12.157L18.667,12.077L18.646,11.996L18.625,11.917L18.603,11.837L18.58,11.758L18.556,11.679L18.531,11.601L18.506,11.523L18.479,11.446L18.451,11.369L18.423,11.292L18.393,11.216L18.363,11.141L18.331,11.065L18.299,10.991L18.266,10.916L18.232,10.843L18.197,10.769L18.162,10.697L18.125,10.624L18.088,10.552L18.05,10.481L18.011,10.41L17.971,10.34L17.93,10.27L17.889,10.201L17.846,10.132L17.803,10.064L17.759,9.996L17.714,9.929L17.669,9.863L17.623,9.797L17.576,9.732L17.528,9.667L17.479,9.603L17.43,9.539L17.38,9.476L17.329,9.414L17.277,9.352L17.225,9.291L17.172,9.231L17.118,9.171L17.064,9.112L17.009,9.053L16.953,8.995L16.897,8.938L16.839,8.882L16.782,8.826L16.723,8.771L16.664,8.716L16.604,8.663L16.544,8.61L16.483,8.557L16.421,8.506L16.359,8.455L16.296,8.405L16.232,8.356L16.168,8.307L16.103,8.259L16.038,8.212L15.972,8.166L15.905,8.12L15.838,8.076L15.771,8.032L15.703,7.989L15.634,7.946L15.565,7.905L15.495,7.864L15.425,7.824L15.354,7.785L15.282,7.747L15.211,7.709L15.138,7.673L15.065,7.637L14.992,7.602L14.918,7.569L14.844,7.535L14.769,7.503L14.694,7.472L14.618,7.442L14.542,7.412L14.466,7.384L14.389,7.356L14.311,7.329L14.234,7.303L14.155,7.278L14.077,7.255L13.998,7.231L13.918,7.209L13.838,7.188L13.758,7.168L13.678,7.149L13.597,7.131L13.515,7.114L13.433,7.097L13.351,7.082L13.269,7.068L13.186,7.055L13.103,7.043L13.019,7.031L12.936,7.021L12.851,7.012L12.767,7.004L12.682,6.997L12.597,6.991L12.512,6.986L12.426,6.983L12.34,6.98L12.253,6.978L12.167,6.978L12.08,6.978Z" style="fill:rgb(255,0,0);"/>
    </g>
</svg>
