<?xml version="1.0" standalone="no"?>
<!DOCTYPE svg PUBLIC "-//W3C//DTD SVG 1.1//EN" "http://www.w3.org/Graphics/SVG/1.1/DTD/svg11.dtd">
<svg width="100%" height="100%" viewBox="0 0 32 25" version="1.1" xmlns="http://www.w3.org/2000/svg" xmlns:xlink="http://www.w3.org/1999/xlink" xml:space="preserve" style="fill-rule:evenodd;clip-rule:evenodd;stroke-linejoin:round;stroke-miterlimit:1.41421;">
    <g id="アートボード1" transform="matrix(1.33655,8.24305e-17,8.24305e-17,1,-0.053218,-0.0298081)">
        <g transform="matrix(0.748196,-6.16742e-17,-6.16742e-17,1,3.48343,-1.04293)">
            <path d="M12.696,5.141C11.836,5 10.959,5 10.099,5.141C9.975,5.784 9.853,6.427 9.732,7.07C9.25,7.204 8.787,7.396 8.352,7.641C7.811,7.272 7.27,6.904 6.728,6.537C6.02,7.045 5.4,7.665 4.892,8.373C5.259,8.915 5.627,9.457 5.996,9.997C5.75,10.432 5.559,10.896 5.424,11.377C4.781,11.498 4.138,11.621 3.495,11.745C3.354,12.604 3.354,13.481 3.495,14.341C4.138,14.465 4.781,14.587 5.424,14.709C5.559,15.19 5.75,15.653 5.996,16.089C5.627,16.629 5.259,17.171 4.892,17.712C5.4,18.42 6.02,19.041 6.728,19.549C7.27,19.182 7.811,18.814 8.352,18.445C8.787,18.69 9.25,18.882 9.732,19.016C9.853,19.659 9.975,20.302 10.099,20.945C10.959,21.086 11.836,21.086 12.696,20.945C12.819,20.302 12.942,19.659 13.063,19.016C13.545,18.882 14.008,18.69 14.443,18.445C14.984,18.814 15.525,19.182 16.067,19.549C16.775,19.041 17.395,18.42 17.903,17.712C17.536,17.171 17.168,16.629 16.799,16.089C17.044,15.653 17.236,15.19 17.371,14.709C18.014,14.587 18.657,14.465 19.3,14.341C19.441,13.481 19.441,12.604 19.3,11.745C18.657,11.621 18.014,11.498 17.371,11.377C17.236,10.896 17.044,10.432 16.799,9.997C17.168,9.457 17.536,8.915 17.903,8.373C17.395,7.665 16.775,7.045 16.067,6.537C15.525,6.904 14.984,7.272 14.443,7.641C14.008,7.396 13.545,7.204 13.063,7.07C12.942,6.427 12.819,5.784 12.696,5.141ZM11.397,9.47C13.369,9.47 14.97,11.071 14.97,13.043C14.97,15.015 13.369,16.616 11.397,16.616C9.425,16.616 7.825,15.015 7.825,13.043C7.825,11.071 9.425,9.47 11.397,9.47Z" style="fill:rgb(0,0,0);"/>
        </g>
    </g>
</svg>
